<svg width="385" height="385" viewBox="0 0 385 385" fill="none" xmlns="http://www.w3.org/2000/svg">
<path fill-rule="evenodd" clip-rule="evenodd" d="M385 155.558V238.807C384.989 243.541 383.103 248.078 379.755 251.426C376.408 254.774 371.87 256.659 367.136 256.67H283.501C276.387 256.656 269.569 253.825 264.539 248.795C259.509 243.765 256.677 236.947 256.663 229.834V155.558C256.652 148.342 253.781 141.426 248.679 136.324C243.577 131.222 236.66 128.351 229.444 128.34H155.545C148.33 128.351 141.413 131.222 136.311 136.324C131.209 141.426 128.337 148.342 128.326 155.558V229.453C128.337 236.668 131.209 243.584 136.311 248.686C141.413 253.788 148.33 256.659 155.545 256.67H229.825C236.936 256.695 243.748 259.53 248.775 264.557C253.803 269.585 256.639 276.396 256.663 283.506V367.137C256.652 371.878 254.761 376.422 251.404 379.77C248.047 383.119 243.499 385 238.758 385H146.201C141.466 384.989 136.929 383.104 133.581 379.756C130.233 376.408 128.348 371.871 128.337 367.137V284.928C128.337 277.409 125.35 270.198 120.032 264.881C114.715 259.564 107.504 256.577 99.9845 256.577H17.8641C13.1295 256.566 8.59211 254.681 5.24425 251.333C1.8964 247.986 0.0108841 243.448 0 238.714V146.471C-1.25581e-05 141.73 1.88076 137.182 5.22979 133.826C8.57882 130.469 13.1224 128.578 17.8641 128.567H100.077C107.597 128.567 114.808 125.58 120.125 120.263C125.442 114.946 128.429 107.735 128.429 100.216V17.8634C128.44 13.145 130.313 8.62166 133.641 5.27661C136.969 1.93157 141.482 0.0352804 146.201 0L238.768 0C243.51 -1.25574e-05 248.058 1.8807 251.415 5.22955C254.771 8.57841 256.663 13.1219 256.674 17.8634V100.072C256.674 103.795 257.407 107.482 258.832 110.921C260.256 114.361 262.345 117.486 264.978 120.119C270.295 125.436 277.506 128.423 285.026 128.423H357.884C365.067 128.461 371.946 131.332 377.023 136.413C382.101 141.495 384.968 148.375 385 155.558Z" fill="#D1E8F5"/>
</svg>
